# xmcd
#
# Track frame offsets: 
#        150
#        11405
#        25275
#        38495
#        49200
#        59590
#        74672
#        91125
#        99992
#        113162
#        133650
#        155042
#        173155
#        186340
#        201870
#        216875
#        228285
#        246062
#
# Disc length: 3505 seconds
#
# Revision: 2
# Processed by: cddbd v1.5.2PL0 Copyright (c) Steve Scherf et al.
# Submitted via: ExactAudioCopy v0.99pb5
#
DISCID=fa0daf12
DTITLE=Reader's Digest [US] - Music For Listening and Relaxation 1992 CD
DTITLE=2 (58:23) RC7240-2
DYEAR=1992
DGENRE=Easy Listening
TTITLE0=I Say A Little Prayer (2:30)
TTITLE1=We've Only Just Begun (3:04)
TTITLE2=She's Always A Woman (2:56)
TTITLE3=And I Love Her (2:22)
TTITLE4=Leaving On A Jet Plane (2:18)
TTITLE5=Strangers In The Night (3:21)
TTITLE6=Jean (3:39)
TTITLE7=Tie A Yellow Ribbon Round The Ole Oak Tree (1:58)
TTITLE8=By The Time I Get To Phoenix (2:55)
TTITLE9=The Wind Beneath My Wings (4:33)
TTITLE10=Somewhere, My Love (4:45)
TTITLE11=Estrellita (4:01)
TTITLE12=Canadian Sunset (2:55)
TTITLE13=C'est Si Bon (3:27)
TTITLE14=Danke Schoen (3:20)
TTITLE15=Hymne A L'Amour (2:32)
TTITLE16=A Nightingale Sang In Berkeley Square (3:57)
TTITLE17=La Mer (3:44)
EXTD=
EXTT0=
EXTT1=
EXTT2=
EXTT3=
EXTT4=
EXTT5=
EXTT6=
EXTT7=
EXTT8=
EXTT9=
EXTT10=
EXTT11=
EXTT12=
EXTT13=
EXTT14=
EXTT15=
EXTT16=
EXTT17=
PLAYORDER=
